{
	"asset":{
		"generator":"Khronos glTF Blender I/O v3.5.30",
		"version":"2.0"
	},
	"scene":0,
	"scenes":[
		{
			"name":"Scene",
			"nodes":[
				0
			]
		}
	],
	"nodes":[
		{
			"mesh":0,
			"name":"Curve.004"
		}
	],
	"materials":[
		{
			"doubleSided":true,
			"name":"SVGMat",
			"pbrMetallicRoughness":{
				"baseColorFactor":[
					0,
					0,
					0,
					1
				],
				"metallicFactor":0,
				"roughnessFactor":0.4000000059604645
			}
		}
	],
	"meshes":[
		{
			"name":"Curve.004",
			"primitives":[
				{
					"attributes":{
						"POSITION":0,
						"TEXCOORD_0":1,
						"NORMAL":2
					},
					"indices":3,
					"material":0
				}
			]
		}
	],
	"accessors":[
		{
			"bufferView":0,
			"componentType":5126,
			"count":23566,
			"max":[
				0.1910640150308609,
				0.00795093271881342,
				0.03413274884223938
			],
			"min":[
				-0.1939774751663208,
				0,
				-0.038717448711395264
			],
			"type":"VEC3"
		},
		{
			"bufferView":1,
			"componentType":5126,
			"count":23566,
			"type":"VEC2"
		},
		{
			"bufferView":2,
			"componentType":5126,
			"count":23566,
			"type":"VEC3"
		},
		{
			"bufferView":3,
			"componentType":5123,
			"count":48912,
			"type":"SCALAR"
		}
	],
	"bufferViews":[
		{
			"buffer":0,
			"byteLength":282792,
			"byteOffset":0,
			"target":34962
		},
		{
			"buffer":0,
			"byteLength":188528,
			"byteOffset":282792,
			"target":34962
		},
		{
			"buffer":0,
			"byteLength":282792,
			"byteOffset":471320,
			"target":34962
		},
		{
			"buffer":0,
			"byteLength":97824,
			"byteOffset":754112,
			"target":34963
		}
	],
	"buffers":[
		{
			"byteLength":851936,
			"uri":"data:application/octet-stream;base64,"
		}
	]
}
