{
	"asset":{
		"generator":"Khronos glTF Blender I/O v3.5.30",
		"version":"2.0"
	},
	"scene":0,
	"scenes":[
		{
			"name":"Scene",
			"nodes":[
				0
			]
		}
	],
	"nodes":[
		{
			"mesh":0,
			"name":"LogoMark"
		}
	],
	"materials":[
		{
			"doubleSided":true,
			"name":"SVGMat",
			"pbrMetallicRoughness":{
				"baseColorFactor":[
					0,
					0,
					0,
					1
				],
				"metallicFactor":0,
				"roughnessFactor":0.4000000059604645
			}
		}
	],
	"meshes":[
		{
			"name":"Curve.017",
			"primitives":[
				{
					"attributes":{
						"POSITION":0,
						"TEXCOORD_0":1,
						"NORMAL":2
					},
					"indices":3,
					"material":0
				}
			]
		}
	],
	"accessors":[
		{
			"bufferView":0,
			"componentType":5126,
			"count":5844,
			"max":[
				0.11435151100158691,
				0.037592027336359024,
				0.10517048835754395
			],
			"min":[
				-0.11369435489177704,
				-0.037592027336359024,
				-0.12059807777404785
			],
			"type":"VEC3"
		},
		{
			"bufferView":1,
			"componentType":5126,
			"count":5844,
			"type":"VEC2"
		},
		{
			"bufferView":2,
			"componentType":5126,
			"count":5844,
			"type":"VEC3"
		},
		{
			"bufferView":3,
			"componentType":5123,
			"count":11151,
			"type":"SCALAR"
		}
	],
	"bufferViews":[
		{
			"buffer":0,
			"byteLength":70128,
			"byteOffset":0,
			"target":34962
		},
		{
			"buffer":0,
			"byteLength":46752,
			"byteOffset":70128,
			"target":34962
		},
		{
			"buffer":0,
			"byteLength":70128,
			"byteOffset":116880,
			"target":34962
		},
		{
			"buffer":0,
			"byteLength":22302,
			"byteOffset":187008,
			"target":34963
		}
	],
	"buffers":[
		{
			"byteLength":209312,
			"uri":"data:application/octet-stream;base64,"
		}
	]
}
